<mxfile host="app.diagrams.net" modified="2021-01-06T23:42:52.023Z" agent="5.0 (Macintosh; Intel Mac OS X 11_1_0) AppleWebKit/537.36 (KHTML, like Gecko) Chrome/87.0.4280.88 Safari/537.36" etag="5I0Q-giv_dPE6wAgfcRu" version="14.1.8" type="github">
  <diagram id="h945fao41x0R4RgQng2K" name="Page-1">
    <mxGraphModel dx="1196" dy="1043" grid="1" gridSize="10" guides="1" tooltips="1" connect="1" arrows="1" fold="1" page="1" pageScale="1" pageWidth="850" pageHeight="1100" math="0" shadow="0">
      <root>
        <mxCell id="0" />
        <mxCell id="1" parent="0" />
        <mxCell id="AzOMAhre1hzz02D3GJ1H-37" value="" style="rounded=0;whiteSpace=wrap;html=1;fillColor=none;" parent="1" vertex="1">
          <mxGeometry x="330" y="480" width="220" height="180" as="geometry" />
        </mxCell>
        <mxCell id="zPneGnZ1vcdY2xTQKbNh-3" value="" style="rounded=0;whiteSpace=wrap;html=1;fillColor=none;" parent="1" vertex="1">
          <mxGeometry x="220" y="280" width="560" height="410" as="geometry" />
        </mxCell>
        <mxCell id="zPneGnZ1vcdY2xTQKbNh-4" value="" style="image;html=1;image=img/lib/clip_art/computers/Laptop_128x128.png;fillColor=none;" parent="1" vertex="1">
          <mxGeometry x="52.779999999999994" y="584.0699999999999" width="84.44" height="84.44" as="geometry" />
        </mxCell>
        <mxCell id="zPneGnZ1vcdY2xTQKbNh-5" value="" style="outlineConnect=0;dashed=0;verticalLabelPosition=bottom;verticalAlign=top;align=center;html=1;shape=mxgraph.aws3.internet_3;fillColor=#D2D3D3;gradientColor=none;" parent="1" vertex="1">
          <mxGeometry x="40" y="375.18" width="110" height="73.96" as="geometry" />
        </mxCell>
        <mxCell id="zPneGnZ1vcdY2xTQKbNh-7" value="CSBC-Faisal Azure Resource Group" style="text;html=1;strokeColor=none;fillColor=none;align=center;verticalAlign=middle;whiteSpace=wrap;rounded=0;" parent="1" vertex="1">
          <mxGeometry x="390" y="260" width="215" height="20" as="geometry" />
        </mxCell>
        <mxCell id="zPneGnZ1vcdY2xTQKbNh-8" value="" style="rounded=0;whiteSpace=wrap;html=1;fillColor=none;" parent="1" vertex="1">
          <mxGeometry x="230" y="310" width="340" height="360" as="geometry" />
        </mxCell>
        <mxCell id="zPneGnZ1vcdY2xTQKbNh-9" value="&lt;font style=&quot;font-size: 10px&quot;&gt;CloudSecurityUnit-VNet 10.0.0.0/16&lt;/font&gt;" style="text;html=1;strokeColor=none;fillColor=none;align=center;verticalAlign=middle;whiteSpace=wrap;rounded=0;" parent="1" vertex="1">
          <mxGeometry x="307.3" y="290" width="185.4" height="20" as="geometry" />
        </mxCell>
        <mxCell id="zPneGnZ1vcdY2xTQKbNh-11" value="&lt;font style=&quot;font-size: 10px&quot;&gt;Virtual Subnet 10.0.0.0/24&lt;/font&gt;" style="text;html=1;strokeColor=none;fillColor=none;align=center;verticalAlign=middle;whiteSpace=wrap;rounded=0;" parent="1" vertex="1">
          <mxGeometry x="290" y="310" width="220" height="20" as="geometry" />
        </mxCell>
        <mxCell id="zPneGnZ1vcdY2xTQKbNh-12" value="" style="aspect=fixed;html=1;points=[];align=center;image;fontSize=12;image=img/lib/azure2/compute/Virtual_Machine.svg;fillColor=none;" parent="1" vertex="1">
          <mxGeometry x="415.4" y="520" width="54.69" height="50.73" as="geometry" />
        </mxCell>
        <mxCell id="zPneGnZ1vcdY2xTQKbNh-13" value="" style="aspect=fixed;html=1;points=[];align=center;image;fontSize=12;image=img/lib/azure2/compute/Virtual_Machine.svg;fillColor=none;" parent="1" vertex="1">
          <mxGeometry x="485.4" y="520" width="54.69" height="50.73" as="geometry" />
        </mxCell>
        <mxCell id="zPneGnZ1vcdY2xTQKbNh-14" value="" style="aspect=fixed;html=1;points=[];align=center;image;fontSize=12;image=img/lib/azure2/compute/Virtual_Machine.svg;fillColor=none;" parent="1" vertex="1">
          <mxGeometry x="345.4" y="520" width="54.7" height="50.73" as="geometry" />
        </mxCell>
        <mxCell id="zPneGnZ1vcdY2xTQKbNh-15" value="" style="rounded=0;whiteSpace=wrap;html=1;fillColor=none;" parent="1" vertex="1">
          <mxGeometry x="639" y="310" width="130" height="360" as="geometry" />
        </mxCell>
        <mxCell id="AzOMAhre1hzz02D3GJ1H-1" value="&lt;font style=&quot;font-size: 10px&quot;&gt;&lt;font&gt;Web1&lt;br&gt;DVWA Container&lt;br&gt;&lt;/font&gt;10.0.0.5&lt;/font&gt;" style="text;html=1;strokeColor=none;fillColor=none;align=center;verticalAlign=middle;whiteSpace=wrap;rounded=0;" parent="1" vertex="1">
          <mxGeometry x="340" y="610.73" width="60" height="40" as="geometry" />
        </mxCell>
        <mxCell id="AzOMAhre1hzz02D3GJ1H-2" value="&lt;font style=&quot;font-size: 10px&quot;&gt;&lt;font&gt;Web2&lt;br&gt;DVWA Container&lt;br&gt;&lt;/font&gt;10.0.0.6&lt;/font&gt;" style="text;html=1;strokeColor=none;fillColor=none;align=center;verticalAlign=middle;whiteSpace=wrap;rounded=0;" parent="1" vertex="1">
          <mxGeometry x="410" y="610.73" width="60" height="40" as="geometry" />
        </mxCell>
        <mxCell id="AzOMAhre1hzz02D3GJ1H-3" value="&lt;span style=&quot;font-size: 10px&quot;&gt;Web3&lt;br&gt;DVWA Container&lt;br&gt;10.0.0.8&lt;br&gt;&lt;/span&gt;" style="text;html=1;strokeColor=none;fillColor=none;align=center;verticalAlign=middle;whiteSpace=wrap;rounded=0;" parent="1" vertex="1">
          <mxGeometry x="490" y="610" width="50" height="40.73" as="geometry" />
        </mxCell>
        <mxCell id="AzOMAhre1hzz02D3GJ1H-5" value="" style="aspect=fixed;html=1;points=[];align=center;image;fontSize=12;image=img/lib/mscae/Network_Security_Groups_Classic.svg;" parent="1" vertex="1">
          <mxGeometry x="257.65" y="372.16" width="59.2" height="80" as="geometry" />
        </mxCell>
        <mxCell id="AzOMAhre1hzz02D3GJ1H-12" value="&lt;font style=&quot;font-size: 10px&quot;&gt;Jump-Box-Provisioner-nsg&lt;br&gt;&lt;/font&gt;" style="text;html=1;strokeColor=none;fillColor=none;align=center;verticalAlign=middle;whiteSpace=wrap;rounded=0;" parent="1" vertex="1">
          <mxGeometry x="232.25" y="339" width="127.75" height="20" as="geometry" />
        </mxCell>
        <mxCell id="AzOMAhre1hzz02D3GJ1H-20" value="" style="aspect=fixed;html=1;points=[];align=center;image;fontSize=12;image=img/lib/azure2/compute/Virtual_Machine.svg;fillColor=none;" parent="1" vertex="1">
          <mxGeometry x="257.65" y="520" width="54.7" height="50.73" as="geometry" />
        </mxCell>
        <mxCell id="AzOMAhre1hzz02D3GJ1H-21" value="&lt;font style=&quot;font-size: 10px&quot;&gt;&lt;font&gt;Jump-Box&lt;br&gt;Ansible Container&lt;br&gt;&lt;/font&gt;10.0.0.7&lt;br&gt;52.188.50.182&lt;br&gt;&lt;/font&gt;" style="text;html=1;strokeColor=none;fillColor=none;align=center;verticalAlign=middle;whiteSpace=wrap;rounded=0;" parent="1" vertex="1">
          <mxGeometry x="240" y="606.29" width="90" height="40" as="geometry" />
        </mxCell>
        <mxCell id="AzOMAhre1hzz02D3GJ1H-22" value="" style="aspect=fixed;html=1;points=[];align=center;image;fontSize=12;image=img/lib/mscae/Load_Balancer_feature.svg;" parent="1" vertex="1">
          <mxGeometry x="402.65" y="372.16" width="80.19" height="80.19" as="geometry" />
        </mxCell>
        <mxCell id="AzOMAhre1hzz02D3GJ1H-30" value="" style="endArrow=none;html=1;" parent="1" source="zPneGnZ1vcdY2xTQKbNh-5" target="AzOMAhre1hzz02D3GJ1H-5" edge="1">
          <mxGeometry width="50" height="50" relative="1" as="geometry">
            <mxPoint x="150" y="422.15999999999997" as="sourcePoint" />
            <mxPoint x="200" y="372.15999999999997" as="targetPoint" />
          </mxGeometry>
        </mxCell>
        <mxCell id="AzOMAhre1hzz02D3GJ1H-31" value="" style="endArrow=none;html=1;" parent="1" source="AzOMAhre1hzz02D3GJ1H-5" target="AzOMAhre1hzz02D3GJ1H-22" edge="1">
          <mxGeometry width="50" height="50" relative="1" as="geometry">
            <mxPoint x="430" y="480" as="sourcePoint" />
            <mxPoint x="480" y="430" as="targetPoint" />
          </mxGeometry>
        </mxCell>
        <mxCell id="AzOMAhre1hzz02D3GJ1H-32" value="" style="endArrow=none;html=1;entryX=0.5;entryY=1;entryDx=0;entryDy=0;entryPerimeter=0;exitX=0.5;exitY=0;exitDx=0;exitDy=0;" parent="1" source="zPneGnZ1vcdY2xTQKbNh-4" target="zPneGnZ1vcdY2xTQKbNh-5" edge="1">
          <mxGeometry width="50" height="50" relative="1" as="geometry">
            <mxPoint x="69.44999999999999" y="550" as="sourcePoint" />
            <mxPoint x="119.44999999999999" y="500" as="targetPoint" />
          </mxGeometry>
        </mxCell>
        <mxCell id="AzOMAhre1hzz02D3GJ1H-33" value="" style="endArrow=none;html=1;" parent="1" source="AzOMAhre1hzz02D3GJ1H-20" target="AzOMAhre1hzz02D3GJ1H-5" edge="1">
          <mxGeometry width="50" height="50" relative="1" as="geometry">
            <mxPoint x="257.65" y="510" as="sourcePoint" />
            <mxPoint x="307.65" y="460" as="targetPoint" />
          </mxGeometry>
        </mxCell>
        <mxCell id="AzOMAhre1hzz02D3GJ1H-34" value="" style="endArrow=none;html=1;entryX=0.481;entryY=1.012;entryDx=0;entryDy=0;entryPerimeter=0;" parent="1" source="zPneGnZ1vcdY2xTQKbNh-14" target="AzOMAhre1hzz02D3GJ1H-22" edge="1">
          <mxGeometry width="50" height="50" relative="1" as="geometry">
            <mxPoint x="430" y="480" as="sourcePoint" />
            <mxPoint x="443" y="450" as="targetPoint" />
          </mxGeometry>
        </mxCell>
        <mxCell id="AzOMAhre1hzz02D3GJ1H-35" value="" style="endArrow=none;html=1;entryX=0.486;entryY=1.013;entryDx=0;entryDy=0;entryPerimeter=0;" parent="1" source="zPneGnZ1vcdY2xTQKbNh-12" target="AzOMAhre1hzz02D3GJ1H-22" edge="1">
          <mxGeometry width="50" height="50" relative="1" as="geometry">
            <mxPoint x="430" y="480" as="sourcePoint" />
            <mxPoint x="480" y="430" as="targetPoint" />
          </mxGeometry>
        </mxCell>
        <mxCell id="AzOMAhre1hzz02D3GJ1H-36" value="" style="endArrow=none;html=1;exitX=0.481;exitY=1.006;exitDx=0;exitDy=0;exitPerimeter=0;" parent="1" source="AzOMAhre1hzz02D3GJ1H-22" target="zPneGnZ1vcdY2xTQKbNh-13" edge="1">
          <mxGeometry width="50" height="50" relative="1" as="geometry">
            <mxPoint x="442" y="455" as="sourcePoint" />
            <mxPoint x="480" y="430" as="targetPoint" />
          </mxGeometry>
        </mxCell>
        <mxCell id="AzOMAhre1hzz02D3GJ1H-42" value="" style="endArrow=none;html=1;entryX=0.462;entryY=0.781;entryDx=0;entryDy=0;entryPerimeter=0;" parent="1" target="zPneGnZ1vcdY2xTQKbNh-15" edge="1">
          <mxGeometry width="50" height="50" relative="1" as="geometry">
            <mxPoint x="280" y="591" as="sourcePoint" />
            <mxPoint x="660" y="591" as="targetPoint" />
          </mxGeometry>
        </mxCell>
        <mxCell id="AzOMAhre1hzz02D3GJ1H-43" value="" style="endArrow=none;html=1;entryX=0.412;entryY=1.053;entryDx=0;entryDy=0;entryPerimeter=0;" parent="1" target="AzOMAhre1hzz02D3GJ1H-20" edge="1">
          <mxGeometry width="50" height="50" relative="1" as="geometry">
            <mxPoint x="280" y="590" as="sourcePoint" />
            <mxPoint x="282" y="571" as="targetPoint" />
          </mxGeometry>
        </mxCell>
        <mxCell id="AzOMAhre1hzz02D3GJ1H-44" value="" style="endArrow=none;html=1;entryX=0.412;entryY=1.053;entryDx=0;entryDy=0;entryPerimeter=0;" parent="1" edge="1">
          <mxGeometry width="50" height="50" relative="1" as="geometry">
            <mxPoint x="371" y="590" as="sourcePoint" />
            <mxPoint x="371.18640000000005" y="573.41869" as="targetPoint" />
          </mxGeometry>
        </mxCell>
        <mxCell id="AzOMAhre1hzz02D3GJ1H-45" value="" style="endArrow=none;html=1;entryX=0.412;entryY=1.053;entryDx=0;entryDy=0;entryPerimeter=0;" parent="1" edge="1">
          <mxGeometry width="50" height="50" relative="1" as="geometry">
            <mxPoint x="442" y="590" as="sourcePoint" />
            <mxPoint x="442.18640000000005" y="573.41869" as="targetPoint" />
          </mxGeometry>
        </mxCell>
        <mxCell id="AzOMAhre1hzz02D3GJ1H-46" value="" style="endArrow=none;html=1;entryX=0.412;entryY=1.053;entryDx=0;entryDy=0;entryPerimeter=0;" parent="1" edge="1">
          <mxGeometry width="50" height="50" relative="1" as="geometry">
            <mxPoint x="511" y="590" as="sourcePoint" />
            <mxPoint x="511.18640000000005" y="573.41869" as="targetPoint" />
          </mxGeometry>
        </mxCell>
        <mxCell id="AzOMAhre1hzz02D3GJ1H-47" value="&lt;font style=&quot;font-size: 10px&quot;&gt;SSH&lt;br&gt;Port 22&lt;br&gt;&lt;/font&gt;" style="text;html=1;strokeColor=none;fillColor=none;align=center;verticalAlign=middle;whiteSpace=wrap;rounded=0;" parent="1" vertex="1">
          <mxGeometry x="280" y="449.14000000000004" width="50" height="37.65" as="geometry" />
        </mxCell>
        <mxCell id="AzOMAhre1hzz02D3GJ1H-48" value="&lt;font style=&quot;font-size: 10px&quot;&gt;HTTP Port 80&lt;/font&gt;" style="text;html=1;strokeColor=none;fillColor=none;align=center;verticalAlign=middle;whiteSpace=wrap;rounded=0;" parent="1" vertex="1">
          <mxGeometry x="320" y="390" width="80" height="20" as="geometry" />
        </mxCell>
        <mxCell id="AzOMAhre1hzz02D3GJ1H-49" value="&lt;font style=&quot;font-size: 10px&quot;&gt;Load Balancer&lt;br&gt;20.185.196.5&lt;br&gt;&lt;/font&gt;" style="text;html=1;strokeColor=none;fillColor=none;align=center;verticalAlign=middle;whiteSpace=wrap;rounded=0;" parent="1" vertex="1">
          <mxGeometry x="382.74" y="340" width="120" height="20" as="geometry" />
        </mxCell>
        <mxCell id="AzOMAhre1hzz02D3GJ1H-50" value="&lt;font style=&quot;font-size: 10px&quot;&gt;Backend Pool&lt;/font&gt;" style="text;html=1;strokeColor=none;fillColor=none;align=center;verticalAlign=middle;whiteSpace=wrap;rounded=0;" parent="1" vertex="1">
          <mxGeometry x="470.09" y="476.97" width="79.91" height="20" as="geometry" />
        </mxCell>
        <mxCell id="AzOMAhre1hzz02D3GJ1H-51" value="" style="aspect=fixed;html=1;points=[];align=center;image;fontSize=12;image=img/lib/azure2/compute/Virtual_Machine.svg;" parent="1" vertex="1">
          <mxGeometry x="669" y="508" width="69" height="64" as="geometry" />
        </mxCell>
        <mxCell id="AzOMAhre1hzz02D3GJ1H-52" value="" style="aspect=fixed;html=1;points=[];align=center;image;fontSize=12;image=img/lib/mscae/Network_Security_Groups_Classic.svg;" parent="1" vertex="1">
          <mxGeometry x="673.9" y="372.34999999999997" width="59.2" height="80" as="geometry" />
        </mxCell>
        <mxCell id="AzOMAhre1hzz02D3GJ1H-53" value="" style="endArrow=none;html=1;" parent="1" edge="1">
          <mxGeometry width="50" height="50" relative="1" as="geometry">
            <mxPoint x="100" y="375" as="sourcePoint" />
            <mxPoint x="100" y="200" as="targetPoint" />
          </mxGeometry>
        </mxCell>
        <mxCell id="AzOMAhre1hzz02D3GJ1H-54" value="" style="endArrow=none;html=1;" parent="1" edge="1">
          <mxGeometry width="50" height="50" relative="1" as="geometry">
            <mxPoint x="100" y="200" as="sourcePoint" />
            <mxPoint x="810" y="200" as="targetPoint" />
          </mxGeometry>
        </mxCell>
        <mxCell id="AzOMAhre1hzz02D3GJ1H-55" value="" style="endArrow=none;html=1;" parent="1" edge="1">
          <mxGeometry width="50" height="50" relative="1" as="geometry">
            <mxPoint x="810" y="410" as="sourcePoint" />
            <mxPoint x="810" y="200" as="targetPoint" />
          </mxGeometry>
        </mxCell>
        <mxCell id="AzOMAhre1hzz02D3GJ1H-56" value="" style="endArrow=none;html=1;entryX=0;entryY=0.5;entryDx=0;entryDy=0;exitX=1;exitY=0.5;exitDx=0;exitDy=0;" parent="1" edge="1">
          <mxGeometry width="50" height="50" relative="1" as="geometry">
            <mxPoint x="570" y="479" as="sourcePoint" />
            <mxPoint x="639" y="479" as="targetPoint" />
          </mxGeometry>
        </mxCell>
        <mxCell id="AzOMAhre1hzz02D3GJ1H-57" value="" style="aspect=fixed;html=1;points=[];align=center;image;fontSize=12;image=img/lib/azure2/networking/Virtual_Networks.svg;" parent="1" vertex="1">
          <mxGeometry x="282.62" y="293.88" width="27" height="16.12" as="geometry" />
        </mxCell>
        <mxCell id="AzOMAhre1hzz02D3GJ1H-58" value="" style="aspect=fixed;html=1;points=[];align=center;image;fontSize=12;image=img/lib/azure2/networking/Virtual_Networks.svg;" parent="1" vertex="1">
          <mxGeometry x="639" y="293.88" width="27" height="16.12" as="geometry" />
        </mxCell>
        <mxCell id="AzOMAhre1hzz02D3GJ1H-59" value="" style="endArrow=none;html=1;exitX=0.998;exitY=0.47;exitDx=0;exitDy=0;exitPerimeter=0;" parent="1" source="AzOMAhre1hzz02D3GJ1H-52" edge="1">
          <mxGeometry width="50" height="50" relative="1" as="geometry">
            <mxPoint x="739" y="410" as="sourcePoint" />
            <mxPoint x="809" y="410" as="targetPoint" />
          </mxGeometry>
        </mxCell>
        <mxCell id="AzOMAhre1hzz02D3GJ1H-60" value="&lt;font style=&quot;font-size: 10px&quot;&gt;ELK-VNet 10.1.0.0/16&lt;/font&gt;" style="text;html=1;strokeColor=none;fillColor=none;align=center;verticalAlign=middle;whiteSpace=wrap;rounded=0;" parent="1" vertex="1">
          <mxGeometry x="674" y="280" width="60" height="30" as="geometry" />
        </mxCell>
        <mxCell id="AzOMAhre1hzz02D3GJ1H-61" value="" style="endArrow=none;html=1;" parent="1" source="AzOMAhre1hzz02D3GJ1H-51" target="AzOMAhre1hzz02D3GJ1H-52" edge="1">
          <mxGeometry width="50" height="50" relative="1" as="geometry">
            <mxPoint x="669" y="790" as="sourcePoint" />
            <mxPoint x="719" y="740" as="targetPoint" />
          </mxGeometry>
        </mxCell>
        <mxCell id="AzOMAhre1hzz02D3GJ1H-62" value="&lt;font style=&quot;font-size: 10px&quot;&gt;Peering&lt;/font&gt;" style="text;html=1;strokeColor=none;fillColor=none;align=center;verticalAlign=middle;whiteSpace=wrap;rounded=0;" parent="1" vertex="1">
          <mxGeometry x="569" y="456.97" width="70" height="20" as="geometry" />
        </mxCell>
        <mxCell id="AzOMAhre1hzz02D3GJ1H-63" value="&lt;font style=&quot;font-size: 10px&quot;&gt;Virtual Subnet 10.1.0.0/24&lt;/font&gt;" style="text;html=1;strokeColor=none;fillColor=none;align=center;verticalAlign=middle;whiteSpace=wrap;rounded=0;" parent="1" vertex="1">
          <mxGeometry x="639" y="310" width="130" height="20" as="geometry" />
        </mxCell>
        <mxCell id="AzOMAhre1hzz02D3GJ1H-64" value="&lt;font style=&quot;font-size: 10px&quot;&gt;ELK-server-nsg&lt;/font&gt;" style="text;html=1;strokeColor=none;fillColor=none;align=center;verticalAlign=middle;whiteSpace=wrap;rounded=0;" parent="1" vertex="1">
          <mxGeometry x="649" y="339" width="110" height="20" as="geometry" />
        </mxCell>
        <mxCell id="AzOMAhre1hzz02D3GJ1H-65" value="&lt;font style=&quot;font-size: 10px&quot;&gt;ELK-Server&lt;br&gt;ELK Container&lt;br&gt;10.1.0.4&lt;br&gt;40.70.219.201&lt;br&gt;&lt;/font&gt;" style="text;html=1;strokeColor=none;fillColor=none;align=center;verticalAlign=middle;whiteSpace=wrap;rounded=0;" parent="1" vertex="1">
          <mxGeometry x="669" y="616.29" width="70" height="20" as="geometry" />
        </mxCell>
        <mxCell id="AzOMAhre1hzz02D3GJ1H-67" value="" style="endArrow=none;html=1;entryX=0.412;entryY=1.053;entryDx=0;entryDy=0;entryPerimeter=0;" parent="1" edge="1">
          <mxGeometry width="50" height="50" relative="1" as="geometry">
            <mxPoint x="699" y="591" as="sourcePoint" />
            <mxPoint x="699.1864" y="574.41869" as="targetPoint" />
          </mxGeometry>
        </mxCell>
        <mxCell id="AzOMAhre1hzz02D3GJ1H-68" value="&lt;font style=&quot;font-size: 10px&quot;&gt;SSH&lt;/font&gt;" style="text;html=1;strokeColor=none;fillColor=none;align=center;verticalAlign=middle;whiteSpace=wrap;rounded=0;" parent="1" vertex="1">
          <mxGeometry x="290" y="572" width="40" height="20" as="geometry" />
        </mxCell>
        <mxCell id="AzOMAhre1hzz02D3GJ1H-69" value="&lt;font style=&quot;font-size: 10px&quot;&gt;HTTP&lt;br&gt;&amp;nbsp;Port 5601&lt;/font&gt;" style="text;html=1;strokeColor=none;fillColor=none;align=center;verticalAlign=middle;whiteSpace=wrap;rounded=0;" parent="1" vertex="1">
          <mxGeometry x="702" y="458" width="50" height="20" as="geometry" />
        </mxCell>
        <mxCell id="AzOMAhre1hzz02D3GJ1H-70" value="" style="endArrow=none;html=1;entryX=0.546;entryY=0.756;entryDx=0;entryDy=0;entryPerimeter=0;" parent="1" edge="1">
          <mxGeometry width="50" height="50" relative="1" as="geometry">
            <mxPoint x="378" y="582" as="sourcePoint" />
            <mxPoint x="709.98" y="582.1600000000001" as="targetPoint" />
          </mxGeometry>
        </mxCell>
        <mxCell id="AzOMAhre1hzz02D3GJ1H-71" value="" style="endArrow=none;html=1;" parent="1" edge="1">
          <mxGeometry width="50" height="50" relative="1" as="geometry">
            <mxPoint x="378" y="581" as="sourcePoint" />
            <mxPoint x="378" y="574" as="targetPoint" />
          </mxGeometry>
        </mxCell>
        <mxCell id="AzOMAhre1hzz02D3GJ1H-72" value="" style="endArrow=none;html=1;" parent="1" edge="1">
          <mxGeometry width="50" height="50" relative="1" as="geometry">
            <mxPoint x="451" y="582" as="sourcePoint" />
            <mxPoint x="451" y="575" as="targetPoint" />
          </mxGeometry>
        </mxCell>
        <mxCell id="AzOMAhre1hzz02D3GJ1H-73" value="" style="endArrow=none;html=1;" parent="1" edge="1">
          <mxGeometry width="50" height="50" relative="1" as="geometry">
            <mxPoint x="522" y="582" as="sourcePoint" />
            <mxPoint x="522" y="575" as="targetPoint" />
          </mxGeometry>
        </mxCell>
        <mxCell id="AzOMAhre1hzz02D3GJ1H-74" value="" style="endArrow=none;html=1;" parent="1" edge="1">
          <mxGeometry width="50" height="50" relative="1" as="geometry">
            <mxPoint x="710" y="582" as="sourcePoint" />
            <mxPoint x="710" y="575" as="targetPoint" />
          </mxGeometry>
        </mxCell>
        <mxCell id="AzOMAhre1hzz02D3GJ1H-75" value="&lt;font style=&quot;font-size: 10px&quot;&gt;Filebeat &amp;amp; Metricbeat&lt;br&gt;Kibana Port 5044&lt;br&gt;Elasticsearch&lt;br&gt;Port 9200&lt;br&gt;&lt;/font&gt;" style="text;html=1;strokeColor=none;fillColor=none;align=center;verticalAlign=middle;whiteSpace=wrap;rounded=0;" parent="1" vertex="1">
          <mxGeometry x="569" y="530" width="72" height="20" as="geometry" />
        </mxCell>
        <mxCell id="AzOMAhre1hzz02D3GJ1H-76" value="&lt;font style=&quot;font-size: 10px&quot;&gt;Health probe 5 sec&lt;br&gt;port 80 -&amp;gt; 80&lt;br&gt;Session Persistence Client IP &amp;amp; Protocol&lt;br&gt;&lt;/font&gt;" style="text;html=1;strokeColor=none;fillColor=none;align=center;verticalAlign=middle;whiteSpace=wrap;rounded=0;" parent="1" vertex="1">
          <mxGeometry x="475.4" y="399" width="94.6" height="42" as="geometry" />
        </mxCell>
        <mxCell id="cKzbDjZSU0lX_kcNdvIl-1" value="" style="aspect=fixed;html=1;points=[];align=center;image;fontSize=12;image=img/lib/mscae/ResourceGroup.svg;" parent="1" vertex="1">
          <mxGeometry x="365" y="260" width="25" height="20" as="geometry" />
        </mxCell>
        <mxCell id="cKzbDjZSU0lX_kcNdvIl-2" value="&lt;font style=&quot;font-size: 10px&quot;&gt;Internet&lt;br&gt;&lt;/font&gt;" style="text;html=1;strokeColor=none;fillColor=none;align=center;verticalAlign=middle;whiteSpace=wrap;rounded=0;" parent="1" vertex="1">
          <mxGeometry x="50.000000000000014" y="352.16" width="40" height="20" as="geometry" />
        </mxCell>
        <mxCell id="cKzbDjZSU0lX_kcNdvIl-3" value="&lt;font style=&quot;font-size: 10px&quot;&gt;SSH&lt;br&gt;HTTP&lt;/font&gt;" style="text;html=1;strokeColor=none;fillColor=none;align=center;verticalAlign=middle;whiteSpace=wrap;rounded=0;" parent="1" vertex="1">
          <mxGeometry x="97.22" y="560" width="40" height="20" as="geometry" />
        </mxCell>
        <mxCell id="cKzbDjZSU0lX_kcNdvIl-5" value="&lt;font style=&quot;font-size: 10px&quot;&gt;Local Workstation&lt;/font&gt;" style="text;html=1;strokeColor=none;fillColor=none;align=center;verticalAlign=middle;whiteSpace=wrap;rounded=0;" parent="1" vertex="1">
          <mxGeometry x="52.78" y="668.51" width="90" height="20" as="geometry" />
        </mxCell>
      </root>
    </mxGraphModel>
  </diagram>
</mxfile>
